<svg width="91" height="90" viewBox="0 0 91 90" fill="none" xmlns="http://www.w3.org/2000/svg">
<path d="M88 45C88 68.1648 69.0034 87 45.5 87C21.9966 87 3 68.1648 3 45C3 21.8352 21.9966 3 45.5 3C69.0034 3 88 21.8352 88 45Z" stroke="white" stroke-width="6"/>
<path d="M46 47.1666C52.9036 47.1666 58.5 41.5702 58.5 34.6666C58.5 27.7631 52.9036 22.1666 46 22.1666C39.0964 22.1666 33.5 27.7631 33.5 34.6666C33.5 41.5702 39.0964 47.1666 46 47.1666Z" stroke="white" stroke-width="2" stroke-linecap="round" stroke-linejoin="round"/>
<path d="M53.2434 44.8541L56.4163 63.8333L45.9997 57.5833L35.583 63.8333L38.7559 44.8541" stroke="white" stroke-width="2" stroke-linecap="round" stroke-linejoin="round"/>
</svg>
