<svg width="91" height="90" viewBox="0 0 91 90" fill="none" xmlns="http://www.w3.org/2000/svg">
<path d="M88 45C88 68.1648 69.0034 87 45.5 87C21.9966 87 3 68.1648 3 45C3 21.8352 21.9966 3 45.5 3C69.0034 3 88 21.8352 88 45Z" stroke="white" stroke-width="6"/>
<path d="M62.5 60C62.5 60 65 60 65 57.5C65 55 62.5 47.5 52.5 47.5C42.5 47.5 40 55 40 57.5C40 60 42.5 60 42.5 60H62.5ZM42.555 57.5C42.5365 57.4975 42.5182 57.4941 42.5 57.49C42.5025 56.83 42.9175 54.915 44.4 53.19C45.78 51.5725 48.205 50 52.5 50C56.7925 50 59.2175 51.575 60.6 53.19C62.0825 54.915 62.495 56.8325 62.5 57.49L62.48 57.495C62.4684 57.497 62.4567 57.4986 62.445 57.5H42.555ZM52.5 42.5C53.8261 42.5 55.0979 41.9732 56.0355 41.0355C56.9732 40.0979 57.5 38.8261 57.5 37.5C57.5 36.1739 56.9732 34.9021 56.0355 33.9645C55.0979 33.0268 53.8261 32.5 52.5 32.5C51.1739 32.5 49.9021 33.0268 48.9645 33.9645C48.0268 34.9021 47.5 36.1739 47.5 37.5C47.5 38.8261 48.0268 40.0979 48.9645 41.0355C49.9021 41.9732 51.1739 42.5 52.5 42.5ZM60 37.5C60 38.4849 59.806 39.4602 59.4291 40.3701C59.0522 41.2801 58.4997 42.1069 57.8033 42.8033C57.1069 43.4997 56.2801 44.0522 55.3701 44.4291C54.4602 44.806 53.4849 45 52.5 45C51.5151 45 50.5398 44.806 49.6299 44.4291C48.7199 44.0522 47.8931 43.4997 47.1967 42.8033C46.5003 42.1069 45.9478 41.2801 45.5709 40.3701C45.194 39.4602 45 38.4849 45 37.5C45 35.5109 45.7902 33.6032 47.1967 32.1967C48.6032 30.7902 50.5109 30 52.5 30C54.4891 30 56.3968 30.7902 57.8033 32.1967C59.2098 33.6032 60 35.5109 60 37.5ZM42.34 48.2C41.34 47.8851 40.3091 47.6781 39.265 47.5825C38.6783 47.5267 38.0893 47.4992 37.5 47.5C27.5 47.5 25 55 25 57.5C25 59.1675 25.8325 60 27.5 60H38.04C37.6694 59.2195 37.4846 58.3638 37.5 57.5C37.5 54.975 38.4425 52.395 40.225 50.24C40.8325 49.505 41.54 48.8175 42.34 48.2ZM37.3 50C35.8204 52.2232 35.0211 54.8295 35 57.5H27.5C27.5 56.85 27.91 54.925 29.4 53.19C30.7625 51.6 33.13 50.05 37.3 50.0025V50ZM28.75 38.75C28.75 36.7609 29.5402 34.8532 30.9467 33.4467C32.3532 32.0402 34.2609 31.25 36.25 31.25C38.2391 31.25 40.1468 32.0402 41.5533 33.4467C42.9598 34.8532 43.75 36.7609 43.75 38.75C43.75 40.7391 42.9598 42.6468 41.5533 44.0533C40.1468 45.4598 38.2391 46.25 36.25 46.25C34.2609 46.25 32.3532 45.4598 30.9467 44.0533C29.5402 42.6468 28.75 40.7391 28.75 38.75ZM36.25 33.75C34.9239 33.75 33.6521 34.2768 32.7145 35.2145C31.7768 36.1521 31.25 37.4239 31.25 38.75C31.25 40.0761 31.7768 41.3479 32.7145 42.2855C33.6521 43.2232 34.9239 43.75 36.25 43.75C37.5761 43.75 38.8479 43.2232 39.7855 42.2855C40.7232 41.3479 41.25 40.0761 41.25 38.75C41.25 37.4239 40.7232 36.1521 39.7855 35.2145C38.8479 34.2768 37.5761 33.75 36.25 33.75Z" fill="white"/>
</svg>
