<svg width="51" height="50" viewBox="0 0 51 50" fill="none" xmlns="http://www.w3.org/2000/svg">
<path d="M51 25C51 29.9445 49.5045 34.778 46.7025 38.8893C43.9005 43.0005 39.9179 46.2048 35.2584 48.097C30.5989 49.9892 25.4717 50.4843 20.5252 49.5196C15.5787 48.555 11.035 46.174 7.46878 42.6777C3.90254 39.1814 1.4739 34.7268 0.489975 29.8773C-0.493948 25.0277 0.0110373 20.0011 1.94107 15.4329C3.87111 10.8648 7.13951 6.96029 11.333 4.21326C15.5264 1.46622 20.4566 -5.8963e-08 25.5 0V3.51565C21.1658 3.51565 16.929 4.77568 13.3252 7.13641C9.72147 9.49714 6.91269 12.8525 5.25407 16.7783C3.59544 20.704 3.16147 25.0238 4.00703 29.1914C4.85259 33.3589 6.9397 37.1871 10.0044 40.1917C13.0692 43.1964 16.9739 45.2426 21.2248 46.0715C25.4757 46.9005 29.8819 46.4751 33.8861 44.849C37.8904 43.2229 41.3129 40.4692 43.7209 36.9361C46.1288 33.403 47.414 29.2492 47.414 25H51Z" fill="#25D649"/>
<path d="M29.626 30.73H19.29L17.386 36H14.122L22.69 12.438H26.26L34.794 36H31.53L29.626 30.73ZM28.742 28.214L24.458 16.246L20.174 28.214H28.742Z" fill="white"/>
</svg>
