<svg width="91" height="90" viewBox="0 0 91 90" fill="none" xmlns="http://www.w3.org/2000/svg">
<path d="M88 45C88 68.1648 69.0034 87 45.5 87C21.9966 87 3 68.1648 3 45C3 21.8352 21.9966 3 45.5 3C69.0034 3 88 21.8352 88 45Z" stroke="white" stroke-width="6"/>
<path d="M63.6875 28.3438H55.1562V25.0938C55.1562 24.8703 54.9734 24.6875 54.75 24.6875H51.9062C51.6828 24.6875 51.5 24.8703 51.5 25.0938V28.3438H38.5V25.0938C38.5 24.8703 38.3172 24.6875 38.0938 24.6875H35.25C35.0266 24.6875 34.8438 24.8703 34.8438 25.0938V28.3438H26.3125C25.4137 28.3438 24.6875 29.0699 24.6875 29.9688V63.6875C24.6875 64.5863 25.4137 65.3125 26.3125 65.3125H63.6875C64.5863 65.3125 65.3125 64.5863 65.3125 63.6875V29.9688C65.3125 29.0699 64.5863 28.3438 63.6875 28.3438ZM61.6562 61.6562H28.3438V42.3594H61.6562V61.6562ZM28.3438 38.9062V32H34.8438V34.4375C34.8438 34.6609 35.0266 34.8438 35.25 34.8438H38.0938C38.3172 34.8438 38.5 34.6609 38.5 34.4375V32H51.5V34.4375C51.5 34.6609 51.6828 34.8438 51.9062 34.8438H54.75C54.9734 34.8438 55.1562 34.6609 55.1562 34.4375V32H61.6562V38.9062H28.3438Z" fill="white"/>
</svg>
